<svg version="1.1" id="Layer_1" xmlns="http://www.w3.org/2000/svg" xmlns:xlink="http://www.w3.org/1999/xlink" x="0px" y="0px"
	 width="100%" viewBox="0 0 512 512" enable-background="new 0 0 512 512" xml:space="preserve">
<path fill="#000000" opacity="1.000000" stroke="none" 
	d="
M513.000000,175.000000 
	C513.000000,287.972534 513.000000,400.445068 513.000000,512.958801 
	C342.402466,512.958801 171.804901,512.958801 1.103673,512.958801 
	C1.103673,342.444153 1.103673,171.888245 1.103673,1.166158 
	C171.666534,1.166158 342.333252,1.166158 513.000000,1.166158 
	C513.000000,58.861729 513.000000,116.680862 513.000000,175.000000 
M381.500000,164.000000 
	C417.254913,164.000000 453.009827,164.000000 488.710876,164.000000 
	C488.710876,117.359764 488.710876,71.298355 488.710876,25.289082 
	C442.359772,25.289082 396.298370,25.289082 350.289062,25.289082 
	C350.289062,71.640160 350.289062,117.701576 350.289062,164.000000 
	C360.551056,164.000000 370.525513,164.000000 381.500000,164.000000 
M371.500122,326.000000 
	C410.587646,326.000000 449.675201,326.000000 488.711731,326.000000 
	C488.711731,279.694824 488.711731,233.966721 488.711731,188.288208 
	C442.361481,188.288208 396.300110,188.288208 350.288269,188.288208 
	C350.288269,234.305130 350.288269,280.033234 350.288269,326.000000 
	C357.216553,326.000000 363.858368,326.000000 371.500122,326.000000 
M318.437134,489.000000 
	C320.873444,489.000000 323.309753,489.000000 325.722748,489.000000 
	C325.722748,442.385498 325.722748,396.323212 325.722748,350.278809 
	C279.715881,350.278809 233.986832,350.278809 188.280243,350.278809 
	C188.280243,396.620483 188.280243,442.682831 188.280243,489.000000 
	C231.524704,489.000000 274.489441,489.000000 318.437134,489.000000 
M77.500000,188.000000 
	C60.074036,188.000000 42.648071,188.000000 25.293961,188.000000 
	C25.293961,234.316605 25.293961,280.044769 25.293961,325.706085 
	C71.649940,325.706085 117.711357,325.706085 163.706055,325.706085 
	C163.706055,279.683411 163.706055,233.955261 163.706055,188.000000 
	C135.108490,188.000000 106.804245,188.000000 77.500000,188.000000 
M188.000000,106.500000 
	C188.000000,125.592163 188.000000,144.684326 188.000000,163.706467 
	C234.315765,163.706467 280.043945,163.706467 325.706512,163.706467 
	C325.706512,117.350922 325.706512,71.289497 325.706512,25.293507 
	C279.684265,25.293507 233.956131,25.293507 188.000000,25.293507 
	C188.000000,52.224243 188.000000,78.862122 188.000000,106.500000 
M47.500042,349.997742 
	C40.069080,349.997742 32.638119,349.997742 25.293995,349.997742 
	C25.293995,396.653656 25.293995,442.716400 25.293995,488.705994 
	C71.653641,488.705994 117.716385,488.705994 163.705994,488.705994 
	C163.705994,442.346344 163.705994,396.283600 163.705994,349.997742 
	C125.106766,349.997742 86.803398,349.997742 47.500042,349.997742 
M326.003113,211.500031 
	C326.003113,203.735931 326.003113,195.971817 326.003113,188.293015 
	C279.680328,188.293015 233.950455,188.293015 188.292999,188.293015 
	C188.292999,234.319641 188.292999,280.049530 188.292999,325.707001 
	C234.319611,325.707001 280.049469,325.707001 326.003113,325.707001 
	C326.003113,287.774231 326.003113,250.137115 326.003113,211.500031 
M349.999084,426.500000 
	C349.999084,447.258606 349.999084,468.017242 349.999084,488.707794 
	C396.647919,488.707794 442.709869,488.707794 488.707825,488.707794 
	C488.707825,442.352112 488.707825,396.290161 488.707825,350.292175 
	C442.352142,350.292175 396.290192,350.292175 349.999084,350.292175 
	C349.999084,375.556396 349.999084,400.528198 349.999084,426.500000 
M95.500000,164.000946 
	C118.258125,164.000946 141.016251,164.000946 163.708328,164.000946 
	C163.708328,117.353119 163.708328,71.291138 163.708328,25.291641 
	C117.353142,25.291641 71.291161,25.291641 25.291626,25.291641 
	C25.291626,71.646820 25.291626,117.708801 25.291626,163.716797 
	C25.893587,163.846664 26.205107,163.972519 26.516712,163.972733 
	C49.177803,163.988510 71.838905,163.994339 95.500000,164.000946 
z"/>
<path fill="#E6E6E6" opacity="1.000000" stroke="none" 
	d="
M381.000000,164.000000 
	C370.525513,164.000000 360.551056,164.000000 350.289062,164.000000 
	C350.289062,117.701576 350.289062,71.640160 350.289062,25.289082 
	C396.298370,25.289082 442.359772,25.289082 488.710876,25.289082 
	C488.710876,71.298355 488.710876,117.359764 488.710876,164.000000 
	C453.009827,164.000000 417.254913,164.000000 381.000000,164.000000 
z"/>
<path fill="#E6E6E6" opacity="1.000000" stroke="none" 
	d="
M371.000153,326.000000 
	C363.858368,326.000000 357.216553,326.000000 350.288269,326.000000 
	C350.288269,280.033234 350.288269,234.305130 350.288269,188.288208 
	C396.300110,188.288208 442.361481,188.288208 488.711731,188.288208 
	C488.711731,233.966721 488.711731,279.694824 488.711731,326.000000 
	C449.675201,326.000000 410.587646,326.000000 371.000153,326.000000 
z"/>
<path fill="#E6E6E6" opacity="1.000000" stroke="none" 
	d="
M317.945648,489.000000 
	C274.489441,489.000000 231.524704,489.000000 188.280243,489.000000 
	C188.280243,442.682831 188.280243,396.620483 188.280243,350.278809 
	C233.986832,350.278809 279.715881,350.278809 325.722748,350.278809 
	C325.722748,396.323212 325.722748,442.385498 325.722748,489.000000 
	C323.309753,489.000000 320.873444,489.000000 317.945648,489.000000 
z"/>
<path fill="#E6E6E6" opacity="1.000000" stroke="none" 
	d="
M78.000000,188.000000 
	C106.804245,188.000000 135.108490,188.000000 163.706055,188.000000 
	C163.706055,233.955261 163.706055,279.683411 163.706055,325.706085 
	C117.711357,325.706085 71.649940,325.706085 25.293961,325.706085 
	C25.293961,280.044769 25.293961,234.316605 25.293961,188.000000 
	C42.648071,188.000000 60.074036,188.000000 78.000000,188.000000 
z"/>
<path fill="#E6E6E6" opacity="1.000000" stroke="none" 
	d="
M188.000000,106.000000 
	C188.000000,78.862122 188.000000,52.224243 188.000000,25.293507 
	C233.956131,25.293507 279.684265,25.293507 325.706512,25.293507 
	C325.706512,71.289497 325.706512,117.350922 325.706512,163.706467 
	C280.043945,163.706467 234.315765,163.706467 188.000000,163.706467 
	C188.000000,144.684326 188.000000,125.592163 188.000000,106.000000 
z"/>
<path fill="#E5E5E5" opacity="1.000000" stroke="none" 
	d="
M48.000038,349.997742 
	C86.803398,349.997742 125.106766,349.997742 163.705994,349.997742 
	C163.705994,396.283600 163.705994,442.346344 163.705994,488.705994 
	C117.716385,488.705994 71.653641,488.705994 25.293995,488.705994 
	C25.293995,442.716400 25.293995,396.653656 25.293995,349.997742 
	C32.638119,349.997742 40.069080,349.997742 48.000038,349.997742 
M59.352634,437.852600 
	C56.546455,440.695709 53.645119,443.452087 50.955639,446.401581 
	C46.543823,451.239960 46.682095,457.821777 51.132000,462.485596 
	C55.702129,467.275421 62.648090,467.658875 67.550781,463.058533 
	C73.011421,457.934662 78.313065,452.631348 83.501236,447.230652 
	C86.909866,443.682343 89.995094,439.823364 93.225136,436.103485 
	C94.249199,435.884949 95.273262,435.666382 96.297325,435.447815 
	C104.201469,444.254303 112.056633,453.105469 120.035172,461.844025 
	C123.007072,465.099091 126.824821,466.682648 131.268646,465.721893 
	C136.019562,464.694763 139.335968,461.755646 140.660812,457.068176 
	C141.939590,452.543701 140.397751,448.774689 137.200378,445.293152 
	C129.001938,436.366180 121.035797,427.225861 112.976784,418.170837 
	C111.682617,419.232971 112.087265,418.722168 112.543587,418.262726 
	C121.107544,409.640259 129.786835,401.128693 138.202240,392.363739 
	C142.672348,387.707977 142.229156,380.878998 137.669830,376.315399 
	C133.113525,371.754883 126.446999,371.470734 121.607300,375.791321 
	C118.879181,378.226807 116.339615,380.875763 113.748650,383.462128 
	C107.197159,390.002106 100.664680,396.561157 95.719048,401.515320 
	C86.958145,393.624207 78.485069,386.341461 70.425133,378.627106 
	C63.393963,371.897430 57.015064,370.819946 51.444317,376.204498 
	C45.930084,381.534424 46.551994,388.078491 53.328640,395.242767 
	C57.790237,399.959595 62.317429,404.614502 66.826088,409.286652 
	C70.249977,412.834747 73.690857,416.366425 77.249985,420.035065 
	C71.172729,426.084412 65.512680,431.718475 59.352634,437.852600 
z"/>
<path fill="#E5E5E5" opacity="1.000000" stroke="none" 
	d="
M326.003113,212.000015 
	C326.003113,250.137115 326.003113,287.774231 326.003113,325.707001 
	C280.049469,325.707001 234.319611,325.707001 188.292999,325.707001 
	C188.292999,280.049530 188.292999,234.319641 188.292999,188.293015 
	C233.950455,188.293015 279.680328,188.293015 326.003113,188.293015 
	C326.003113,195.971817 326.003113,203.735931 326.003113,212.000015 
M302.188843,297.210541 
	C304.845184,291.495667 303.476440,286.609314 299.153442,282.307495 
	C294.784088,277.959534 290.456177,273.569763 286.074219,269.234619 
	C281.985565,265.189667 277.849762,261.192383 273.669678,257.110657 
	C282.426575,248.359406 290.656799,240.331940 298.613647,232.042130 
	C300.572876,230.000931 302.367828,227.266098 302.966125,224.568039 
	C304.153870,219.211807 301.251892,214.451096 296.255219,211.936172 
	C291.840027,209.713898 286.959503,210.377792 283.062897,214.245422 
	C274.454559,222.789719 266.012756,231.501816 257.006561,240.649765 
	C248.404434,231.893784 240.342987,223.520004 232.054565,215.377258 
	C230.135269,213.491714 227.612137,211.736115 225.066849,211.073959 
	C219.864960,209.720642 214.770157,212.491837 212.126541,217.276825 
	C209.656830,221.747070 210.310547,226.958725 214.252213,230.929672 
	C222.796585,239.537476 231.484131,248.003204 241.173721,257.574677 
	C239.197098,258.939911 237.503937,259.782135 236.226883,261.045135 
	C228.647324,268.541107 221.042694,276.018921 213.694138,283.738617 
	C209.290222,288.364929 209.826859,295.315704 214.444168,299.794098 
	C218.930771,304.145721 225.635941,304.597687 230.148575,300.425751 
	C235.526520,295.453827 240.680374,290.230164 245.775177,284.964508 
	C249.433533,281.183441 252.835815,277.154663 256.401062,273.182129 
	C265.941498,282.722046 274.328583,291.296265 282.930359,299.649384 
	C289.559113,306.086517 296.257721,305.365936 302.188843,297.210541 
z"/>
<path fill="#E6E6E6" opacity="1.000000" stroke="none" 
	d="
M349.999084,426.000000 
	C349.999084,400.528198 349.999084,375.556396 349.999084,350.292175 
	C396.290192,350.292175 442.352142,350.292175 488.707825,350.292175 
	C488.707825,396.290161 488.707825,442.352112 488.707825,488.707794 
	C442.709869,488.707794 396.647919,488.707794 349.999084,488.707794 
	C349.999084,468.017242 349.999084,447.258606 349.999084,426.000000 
M467.886139,416.820221 
	C467.652313,415.514343 467.399933,414.211517 467.187378,412.902191 
	C462.355652,383.140137 435.357147,365.415222 406.442780,373.026123 
	C382.667358,379.284363 367.351959,404.414032 372.041718,429.471588 
	C376.265991,452.041992 400.222687,470.016235 423.225555,467.873962 
	C449.273193,465.448059 468.332306,444.068115 467.886139,416.820221 
z"/>
<path fill="#E6E6E6" opacity="1.000000" stroke="none" 
	d="
M95.000000,164.000946 
	C71.838905,163.994339 49.177803,163.988510 26.516712,163.972733 
	C26.205107,163.972519 25.893587,163.846664 25.291626,163.716797 
	C25.291626,117.708801 25.291626,71.646820 25.291626,25.291641 
	C71.291161,25.291641 117.353142,25.291641 163.708328,25.291641 
	C163.708328,71.291138 163.708328,117.353119 163.708328,164.000946 
	C141.016251,164.000946 118.258125,164.000946 95.000000,164.000946 
M142.961700,95.363724 
	C142.657486,92.231468 142.544342,89.066780 142.018845,85.972099 
	C137.836563,61.342484 114.737106,43.982307 90.242226,46.280491 
	C60.061996,49.112091 42.110332,77.175758 46.852684,103.249855 
	C51.676548,129.772079 79.664062,148.343216 105.755707,141.348007 
	C127.257393,135.583359 140.513199,119.508209 142.961700,95.363724 
z"/>
<path fill="#010101" opacity="1.000000" stroke="none" 
	d="
M59.602631,437.602539 
	C65.512680,431.718475 71.172729,426.084412 77.249985,420.035065 
	C73.690857,416.366425 70.249977,412.834747 66.826088,409.286652 
	C62.317429,404.614502 57.790237,399.959595 53.328640,395.242767 
	C46.551994,388.078491 45.930084,381.534424 51.444317,376.204498 
	C57.015064,370.819946 63.393963,371.897430 70.425133,378.627106 
	C78.485069,386.341461 86.958145,393.624207 95.719048,401.515320 
	C100.664680,396.561157 107.197159,390.002106 113.748650,383.462128 
	C116.339615,380.875763 118.879181,378.226807 121.607300,375.791321 
	C126.446999,371.470734 133.113525,371.754883 137.669830,376.315399 
	C142.229156,380.878998 142.672348,387.707977 138.202240,392.363739 
	C129.786835,401.128693 121.107544,409.640259 112.543587,418.262726 
	C112.087265,418.722168 111.682617,419.232971 112.976784,418.170837 
	C121.035797,427.225861 129.001938,436.366180 137.200378,445.293152 
	C140.397751,448.774689 141.939590,452.543701 140.660812,457.068176 
	C139.335968,461.755646 136.019562,464.694763 131.268646,465.721893 
	C126.824821,466.682648 123.007072,465.099091 120.035172,461.844025 
	C112.056633,453.105469 104.201469,444.254303 96.297325,435.447815 
	C95.273262,435.666382 94.249199,435.884949 93.225136,436.103485 
	C89.995094,439.823364 86.909866,443.682343 83.501236,447.230652 
	C78.313065,452.631348 73.011421,457.934662 67.550781,463.058533 
	C62.648090,467.658875 55.702129,467.275421 51.132000,462.485596 
	C46.682095,457.821777 46.543823,451.239960 50.955639,446.401581 
	C53.645119,443.452087 56.546455,440.695709 59.602631,437.602539 
z"/>
<path fill="#000000" opacity="1.000000" stroke="none" 
	d="
M302.038086,297.583679 
	C296.257721,305.365936 289.559113,306.086517 282.930359,299.649384 
	C274.328583,291.296265 265.941498,282.722046 256.401062,273.182129 
	C252.835815,277.154663 249.433533,281.183441 245.775177,284.964508 
	C240.680374,290.230164 235.526520,295.453827 230.148575,300.425751 
	C225.635941,304.597687 218.930771,304.145721 214.444168,299.794098 
	C209.826859,295.315704 209.290222,288.364929 213.694138,283.738617 
	C221.042694,276.018921 228.647324,268.541107 236.226883,261.045135 
	C237.503937,259.782135 239.197098,258.939911 241.173721,257.574677 
	C231.484131,248.003204 222.796585,239.537476 214.252213,230.929672 
	C210.310547,226.958725 209.656830,221.747070 212.126541,217.276825 
	C214.770157,212.491837 219.864960,209.720642 225.066849,211.073959 
	C227.612137,211.736115 230.135269,213.491714 232.054565,215.377258 
	C240.342987,223.520004 248.404434,231.893784 257.006561,240.649765 
	C266.012756,231.501816 274.454559,222.789719 283.062897,214.245422 
	C286.959503,210.377792 291.840027,209.713898 296.255219,211.936172 
	C301.251892,214.451096 304.153870,219.211807 302.966125,224.568039 
	C302.367828,227.266098 300.572876,230.000931 298.613647,232.042130 
	C290.656799,240.331940 282.426575,248.359406 273.669678,257.110657 
	C277.849762,261.192383 281.985565,265.189667 286.074219,269.234619 
	C290.456177,273.569763 294.784088,277.959534 299.153442,282.307495 
	C303.476440,286.609314 304.845184,291.495667 302.038086,297.583679 
z"/>
<path fill="#020201" opacity="1.000000" stroke="none" 
	d="
M467.907288,417.273865 
	C468.332306,444.068115 449.273193,465.448059 423.225555,467.873962 
	C400.222687,470.016235 376.265991,452.041992 372.041718,429.471588 
	C367.351959,404.414032 382.667358,379.284363 406.442780,373.026123 
	C435.357147,365.415222 462.355652,383.140137 467.187378,412.902191 
	C467.399933,414.211517 467.652313,415.514343 467.907288,417.273865 
M410.354950,396.581268 
	C397.429962,402.226166 391.880646,415.458191 396.866425,428.743744 
	C401.468079,441.005615 414.757599,447.060181 428.011536,442.933075 
	C440.020355,439.193726 446.635498,426.000183 443.147614,412.745392 
	C439.383209,398.439880 427.533478,392.335602 410.354950,396.581268 
z"/>
<path fill="#020201" opacity="1.000000" stroke="none" 
	d="
M142.943726,95.818001 
	C140.513199,119.508209 127.257393,135.583359 105.755707,141.348007 
	C79.664062,148.343216 51.676548,129.772079 46.852684,103.249855 
	C42.110332,77.175758 60.061996,49.112091 90.242226,46.280491 
	C114.737106,43.982307 137.836563,61.342484 142.018845,85.972099 
	C142.544342,89.066780 142.657486,92.231468 142.943726,95.818001 
M97.999489,118.925812 
	C99.449745,118.583900 100.922462,118.316612 102.346680,117.888115 
	C112.562584,114.814514 119.451851,104.608383 118.930107,93.374069 
	C118.385643,81.650604 110.665970,72.597588 99.229767,70.271095 
	C88.065468,67.999924 77.202278,73.110832 72.504356,82.896912 
	C65.033592,98.459000 73.790337,121.145706 97.999489,118.925812 
z"/>
<path fill="#FD2C00" opacity="1.000000" stroke="none" 
	d="
M410.715363,396.402557 
	C427.533478,392.335602 439.383209,398.439880 443.147614,412.745392 
	C446.635498,426.000183 440.020355,439.193726 428.011536,442.933075 
	C414.757599,447.060181 401.468079,441.005615 396.866425,428.743744 
	C391.880646,415.458191 397.429962,402.226166 410.715363,396.402557 
z"/>
<path fill="#FD2C00" opacity="1.000000" stroke="none" 
	d="
M97.558899,118.951584 
	C73.790337,121.145706 65.033592,98.459000 72.504356,82.896912 
	C77.202278,73.110832 88.065468,67.999924 99.229767,70.271095 
	C110.665970,72.597588 118.385643,81.650604 118.930107,93.374069 
	C119.451851,104.608383 112.562584,114.814514 102.346680,117.888115 
	C100.922462,118.316612 99.449745,118.583900 97.558899,118.951584 
z"/>
</svg>